<?xml version="1.0" encoding="UTF-8" standalone="no"?>
<!-- Created with Inkscape (http://www.inkscape.org/) -->

<svg
   width="52.362442mm"
   height="50.576099mm"
   viewBox="0 0 52.362442 50.576099"
   version="1.1"
   id="svg1"
   xml:space="preserve"
   inkscape:version="1.4 (86a8ad7, 2024-10-11)"
   sodipodi:docname="MyDay.svg"
   inkscape:export-filename="MyDay_transparent.png"
   inkscape:export-xdpi="96"
   inkscape:export-ydpi="96"
   xmlns:inkscape="http://www.inkscape.org/namespaces/inkscape"
   xmlns:sodipodi="http://sodipodi.sourceforge.net/DTD/sodipodi-0.dtd"
   xmlns="http://www.w3.org/2000/svg"
   xmlns:svg="http://www.w3.org/2000/svg"><sodipodi:namedview
     id="namedview1"
     pagecolor="#505050"
     bordercolor="#eeeeee"
     borderopacity="1"
     inkscape:showpageshadow="0"
     inkscape:pageopacity="0"
     inkscape:pagecheckerboard="0"
     inkscape:deskcolor="#505050"
     inkscape:document-units="mm"
     inkscape:zoom="2.0334082"
     inkscape:cx="74.997239"
     inkscape:cy="100.07828"
     inkscape:window-width="1920"
     inkscape:window-height="991"
     inkscape:window-x="-9"
     inkscape:window-y="-9"
     inkscape:window-maximized="1"
     inkscape:current-layer="layer1" /><defs
     id="defs1"><inkscape:path-effect
       effect="fillet_chamfer"
       id="path-effect3"
       is_visible="true"
       lpeversion="1"
       nodesatellites_param="F,0,0,1,0,3.545469,0,1 @ F,0,0,1,0,3.7070002,0,1 @ F,0,0,1,0,4.98907,0,1 @ F,0,0,1,0,4.1882005,0,1"
       radius="0"
       unit="px"
       method="auto"
       mode="F"
       chamfer_steps="1"
       flexible="false"
       use_knot_distance="true"
       apply_no_radius="true"
       apply_with_radius="true"
       only_selected="false"
       hide_knots="false" /></defs><g
     inkscape:label="Layer 1"
     inkscape:groupmode="layer"
     id="layer1"
     transform="translate(-61.636704,-101.17884)"><g
       style="fill:#ff9b42;fill-opacity:1;stroke:#ffffff;stroke-width:0.308182;stroke-dasharray:none;stroke-opacity:0.155986;paint-order:markers stroke fill"
       id="g2"
       transform="matrix(1.1310118,-1.1632104,1.1632104,1.1310118,57.939297,116.49583)"><path
         d="m 8,3 a 0.5,0.5 0 0 1 0.5,0.5 v 2 a 0.5,0.5 0 0 1 -1,0 v -2 A 0.5,0.5 0 0 1 8,3 m 8,8 a 0.5,0.5 0 0 1 -0.5,0.5 h -2 a 0.5,0.5 0 0 1 0,-1 h 2 A 0.5,0.5 0 0 1 16,11 M 2.5,11.5 a 0.5,0.5 0 0 0 0,-1 h -2 a 0.5,0.5 0 0 0 0,1 z M 13.657,5.343 a 0.5,0.5 0 0 1 0,0.707 L 12.243,7.464 A 0.5,0.5 0 1 1 11.536,6.757 L 12.95,5.343 a 0.5,0.5 0 0 1 0.707,0 m -9.9,2.121 A 0.5,0.5 0 0 0 4.464,6.757 L 3.05,5.343 A 0.5,0.5 0 1 0 2.343,6.05 Z M 8,7 a 4,4 0 0 0 -4,4 0.5,0.5 0 0 0 0.5,0.5 h 7 A 0.5,0.5 0 0 0 12,11 4,4 0 0 0 8,7"
         id="path1-8"
         style="fill:#ff9b42;fill-opacity:1;stroke:#ffffff;stroke-width:0.308182;stroke-dasharray:none;stroke-opacity:0.155986;paint-order:markers stroke fill"
         inkscape:label="sun" /></g><path
       d="m 113.51911,108.07197 c 0.68173,0.68384 0,0 0,0 z m -6.13301,8.60689 -7.00915,-7.00886 -23.876694,23.87919 c -0.192883,0.19283 -0.338087,0.42803 -0.424054,0.68686 l -2.821184,8.45971 c -0.226954,0.68412 0.42329,1.33433 1.107446,1.10739 l 8.46005,-2.82106 c 0.258513,-0.0849 0.493691,-0.22893 0.686896,-0.42054 l 23.87669,-23.87919 z"
       id="path1"
       style="display:inline;opacity:0.282;fill:#161819;fill-opacity:1;stroke:#ffffff;stroke-width:0.499999;stroke-dasharray:none;stroke-opacity:0.0592503"
       inkscape:label="shadow"
       sodipodi:nodetypes="cccccccccccc" /><path
       fill-rule="evenodd"
       d="m 61.636704,146.33607 a 5.4188678,5.4188678 0 0 0 5.418868,5.41887 h 39.738368 a 5.4188678,5.4188678 0 0 0 5.41887,-5.41887 V 124.6606 a 1.80629,1.80629 0 0 0 -3.61258,0 v 21.67547 a 1.8062892,1.8062892 0 0 1 -1.80629,1.80629 H 67.055572 a 1.8062892,1.8062892 0 0 1 -1.80629,-1.80629 V 106.5977 a 1.8062892,1.8062892 0 0 1 1.80629,-1.80629 h 23.48176 a 1.8062892,1.8062892 0 0 0 0,-3.61257 h -23.48176 a 5.4188678,5.4188678 0 0 0 -5.418868,5.41886 z"
       id="path2"
       style="display:inline;fill:#ffffff;fill-opacity:1;stroke-width:0.264583" /><path
       d="m 112.64621,106.69083 a 1.8062892,1.8062892 0 0 1 0,2.55048 l -3.76792,3.77153 -7.22516,-7.22515 3.76792,-3.77153 a 1.8062892,1.8062892 0 0 1 2.5541,0 l 4.67106,4.67106 z m -6.32201,8.8725 -7.225164,-7.22516 -24.612497,24.61611 a 1.8062892,1.8062892 0 0 0 -0.437122,0.70806 l -2.908125,8.72077 a 0.90314463,0.90314463 0 0 0 1.141574,1.14157 l 8.720765,-2.90812 a 1.8062892,1.8062892 0 0 0 0.708065,-0.43351 L 106.3242,115.56694 Z"
       id="path4"
       style="display:inline;fill:#ffffff;fill-opacity:1;stroke:none;stroke-width:0.499999;stroke-dasharray:none;stroke-opacity:0.0592503"
       inkscape:label="pencil" /><g
       style="fill:#0fa3b1;fill-opacity:1;stroke:#ffffff;stroke-width:0.546343;stroke-dasharray:none;stroke-opacity:0.155986;paint-order:markers stroke fill"
       id="g3"
       transform="matrix(0.91517624,0,0,0.91517624,90.984087,130.70316)"><path
         d="m 6,0.278 a 0.77,0.77 0 0 1 0.08,0.858 7.2,7.2 0 0 0 -0.878,3.46 c 0,4.021 3.278,7.277 7.318,7.277 q 0.792,-10e-4 1.533,-0.16 a 0.79,0.79 0 0 1 0.81,0.316 0.73,0.73 0 0 1 -0.031,0.893 A 8.35,8.35 0 0 1 8.344,16 C 3.734,16 0,12.286 0,7.71 0,4.266 2.114,1.312 5.124,0.06 A 0.75,0.75 0 0 1 6,0.278"
         id="path1-82"
         style="fill:#0fa3b1;fill-opacity:1;stroke:#ffffff;stroke-width:0.546343;stroke-dasharray:none;stroke-opacity:0.155986;paint-order:markers stroke fill"
         inkscape:label="moon" /><path
         d="m 10.794,3.148 a 0.217,0.217 0 0 1 0.412,0 l 0.387,1.162 c 0.173,0.518 0.579,0.924 1.097,1.097 l 1.162,0.387 a 0.217,0.217 0 0 1 0,0.412 L 12.69,6.593 A 1.73,1.73 0 0 0 11.593,7.69 l -0.387,1.162 a 0.217,0.217 0 0 1 -0.412,0 L 10.407,7.69 A 1.73,1.73 0 0 0 9.31,6.593 L 8.148,6.206 a 0.217,0.217 0 0 1 0,-0.412 L 9.31,5.407 A 1.73,1.73 0 0 0 10.407,4.31 Z m 3.069,-3.049 a 0.145,0.145 0 0 1 0.274,0 l 0.258,0.774 c 0.115,0.346 0.386,0.617 0.732,0.732 l 0.774,0.258 a 0.145,0.145 0 0 1 0,0.274 l -0.774,0.258 a 1.16,1.16 0 0 0 -0.732,0.732 l -0.258,0.774 a 0.145,0.145 0 0 1 -0.274,0 L 13.605,3.127 A 1.16,1.16 0 0 0 12.873,2.395 L 12.099,2.137 a 0.145,0.145 0 0 1 0,-0.274 L 12.873,1.605 C 13.219,1.49 13.49,1.219 13.605,0.873 Z"
         id="path2-4"
         style="fill:#0fa3b1;fill-opacity:1;stroke:#ffffff;stroke-width:0.546343;stroke-dasharray:none;stroke-opacity:0.155986;paint-order:markers stroke fill"
         inkscape:label="stars" /></g></g></svg>
